HIERARCHY
ROOT Hips
{
	OFFSET 0.000000 0.000000 0.000000
	CHANNELS 6 Xposition Yposition Zposition Zrotation Yrotation Xrotation
	JOINT LHipJoint
	{
		OFFSET 0.000000 0.000000 0.000000
		CHANNELS 3 Zrotation Yrotation Xrotation
		JOINT LeftUpLeg
		{
			OFFSET 0.076937 -0.101296 0.047373
			CHANNELS 3 Zrotation Yrotation Xrotation
			JOINT LeftLeg
			{
				OFFSET 0.138181 -0.379650 0.000000
				CHANNELS 3 Zrotation Yrotation Xrotation
				JOINT LeftFoot
				{
					OFFSET 0.144621 -0.397343 0.000000
					CHANNELS 3 Zrotation Yrotation Xrotation
					JOINT LeftToeBase
					{
						OFFSET 0.008898 -0.024446 0.131094
						CHANNELS 3 Zrotation Yrotation Xrotation
						End Site
						{
							OFFSET 0.000000 0.000000 0.000000
						}
					}
				}
			}
		}
	}
	JOINT RHipJoint
	{
		OFFSET 0.000000 0.000000 0.000000
		CHANNELS 3 Zrotation Yrotation Xrotation
		JOINT RightUpLeg
		{
			OFFSET -0.073689 -0.101296 0.047373
			CHANNELS 3 Zrotation Yrotation Xrotation
			JOINT RightLeg
			{
				OFFSET -0.143511 -0.394292 0.000000
				CHANNELS 3 Zrotation Yrotation Xrotation
				JOINT RightFoot
				{
					OFFSET -0.144963 -0.398282 0.000000
					CHANNELS 3 Zrotation Yrotation Xrotation
					JOINT RightToeBase
					{
						OFFSET -0.009298 -0.025546 0.133386
						CHANNELS 3 Zrotation Yrotation Xrotation
						End Site
						{
							OFFSET 0.000000 0.000000 0.000000
						}
					}
				}
			}
		}
	}
	JOINT LowerBack
	{
		OFFSET 0.000000 0.000000 0.000000
		CHANNELS 3 Zrotation Yrotation Xrotation
		JOINT Spine
		{
			OFFSET 0.001596 0.114897 -0.010915
			CHANNELS 3 Zrotation Yrotation Xrotation
			JOINT Spine1
			{
				OFFSET 0.003201 0.115645 -0.002413
				CHANNELS 3 Zrotation Yrotation Xrotation
				JOINT Neck
				{
					OFFSET 0.000000 0.000000 0.000000
					CHANNELS 3 Zrotation Yrotation Xrotation
					JOINT Neck1
					{
						OFFSET -0.003058 0.098565 0.009709
						CHANNELS 3 Zrotation Yrotation Xrotation
						JOINT Head
						{
							OFFSET 0.005874 0.099418 -0.006997
							CHANNELS 3 Zrotation Yrotation Xrotation
							End Site
							{
								OFFSET 0.000000 0.000000 0.000000
							}
						}
					}
				}
				JOINT LeftShoulder
				{
					OFFSET 0.000000 0.000000 0.000000
					CHANNELS 3 Zrotation Yrotation Xrotation
					JOINT LeftArm
					{
						OFFSET 0.189788 0.067783 -0.017566
						CHANNELS 3 Zrotation Yrotation Xrotation
						JOINT LeftForeArm
						{
							OFFSET 0.281260 -0.000000 -0.000000
							CHANNELS 3 Zrotation Yrotation Xrotation
							JOINT LeftHand
							{
								OFFSET 0.196626 -0.000000 -0.000000
								CHANNELS 3 Zrotation Yrotation Xrotation
								JOINT LeftFingerBase
								{
									OFFSET 0.000000 0.000000 0.000000
									CHANNELS 3 Zrotation Yrotation Xrotation
									JOINT LeftHandIndex1
									{
										OFFSET 0.040372 -0.000000 -0.000000
										CHANNELS 3 Zrotation Yrotation Xrotation
										End Site
										{
											OFFSET 0.000000 0.000000 0.000000
										}
									}
								}
								JOINT LThumb
								{
									OFFSET 0.000000 0.000000 0.000000
									CHANNELS 3 Zrotation Yrotation Xrotation
									End Site
									{
										OFFSET 0.000000 0.000000 0.000000
									}
								}
							}
						}
					}
				}
				JOINT RightShoulder
				{
					OFFSET 0.000000 0.000000 0.000000
					CHANNELS 3 Zrotation Yrotation Xrotation
					JOINT RightArm
					{
						OFFSET -0.177042 0.077557 -0.022840
						CHANNELS 3 Zrotation Yrotation Xrotation
						JOINT RightForeArm
						{
							OFFSET -0.295874 -0.000000 -0.000000
							CHANNELS 3 Zrotation Yrotation Xrotation
							JOINT RightHand
							{
								OFFSET -0.194403 -0.000000 -0.000000
								CHANNELS 3 Zrotation Yrotation Xrotation
								JOINT RightFingerBase
								{
									OFFSET 0.000000 0.000000 0.000000
									CHANNELS 3 Zrotation Yrotation Xrotation
									JOINT RightHandIndex1
									{
										OFFSET -0.035138 -0.000000 -0.000000
										CHANNELS 3 Zrotation Yrotation Xrotation
										End Site
										{
											OFFSET 0.000000 0.000000 0.000000
										}
									}
								}
								JOINT RThumb
								{
									OFFSET 0.000000 0.000000 0.000000
									CHANNELS 3 Zrotation Yrotation Xrotation
									End Site
									{
										OFFSET 0.000000 0.000000 0.000000
									}
								}
							}
						}
					}
				}
			}
		}
	}
}
MOTION
Frames: 6
Frame Time: 0.033333
9.562688 0.939391 -20.984880 -175.399009 -65.300223 178.311859 -10.900363 28.050943 -9.992046 -26.735930 -14.328006 -25.826889 18.614563 5.399878 75.019927 37.557535 -7.185100 -0.461017 -9.382855 11.791312 -12.775511 -3.204449 -28.876934 -1.080967 19.628428 1.512679 -14.550092 -17.369372 -3.716439 49.826936 -31.939475 11.538849 -14.010815 7.288200 -5.874118 -14.183057 -2.395059 4.195567 29.149534 13.572529 6.682112 11.189128 -9.643935 -5.220570 -29.139493 -5.706762 -2.313378 -13.219619 1.910982 -1.147272 6.162036 -2.213714 1.244910 -10.850022 8.080138 27.355534 9.183322 -68.642866 -6.681015 55.062711 173.181709 -76.823803 -173.097242 12.838784 -17.893929 11.972948 -1.051002 11.753311 0.143669 -0.001439 -0.006293 0.015608 0.005248 -0.003746 -0.008413 -12.290564 -35.556389 -5.336962 82.459102 6.738584 52.036393 136.173269 89.434649 144.935753 -9.096744 32.792023 8.429057 0.558644 -8.400326 0.009813 -0.031664 -0.040783 0.043356 0.002658 -0.001161 0.003935 
9.506596 0.950656 -21.000249 -174.377644 -68.192342 177.569853 -10.459491 27.825569 -10.059310 -28.255946 -12.992834 -25.301461 12.488955 5.931989 62.625971 32.758793 -5.256975 -0.093315 -8.320881 9.048139 -13.384233 -3.590186 -27.893092 0.148988 17.497679 -0.554384 -12.926661 -15.569393 -4.218784 47.511618 -31.899285 12.615678 -6.170532 8.329667 -7.363833 -14.243038 -3.178390 3.542614 27.207234 12.155030 5.807950 11.279180 -9.066419 -3.489677 -29.014730 -5.308183 -2.809129 -13.315927 2.712338 -1.658348 7.254892 -2.146321 0.446281 -10.421683 9.400337 28.578129 10.279285 -66.234560 -5.254243 56.768031 170.895726 -76.104611 -172.436215 12.483772 -18.501834 12.560076 -1.999314 11.998094 0.159895 -0.002802 -0.006125 0.015350 0.005192 -0.001738 -0.007774 -12.756003 -34.941360 -4.995792 83.163524 5.831370 54.647257 177.069329 84.698689 -175.364742 -9.785896 32.681126 8.571907 0.017753 -8.187582 0.114914 -0.029158 -0.042838 0.044539 0.002184 -0.001279 0.008924 
9.446917 0.960031 -21.013180 -172.714511 -71.362023 175.859946 -9.929306 27.910955 -9.278925 -29.522242 -11.996358 -24.161187 7.322842 5.588682 49.993139 31.516850 -5.870321 -0.498129 -7.538965 6.990163 -12.221468 -3.684651 -26.856677 1.067492 14.799935 -2.927331 -11.559969 -14.510123 -4.808929 46.893109 -30.891272 14.840698 2.570728 9.343525 -9.312572 -13.453492 -4.843166 3.270004 25.121011 12.579559 5.750500 11.244602 -8.826362 -3.116389 -28.128001 -4.969149 -4.380774 -13.481796 2.614657 -3.184648 7.719439 -2.377944 -0.195552 -10.289653 10.167256 29.233984 11.936281 -64.491723 -4.080009 56.147933 169.759259 -76.799207 -171.328599 12.122837 -18.242779 12.832296 -2.399933 12.096549 0.200727 -0.004625 -0.005509 0.014767 0.006077 -0.002163 -0.007652 -13.522519 -34.196284 -4.769448 83.612571 4.866157 57.102158 178.154483 82.914206 -174.002778 -10.208978 33.458622 9.408878 0.493678 -8.049042 0.115943 -0.028919 -0.042789 0.045217 0.002797 0.001182 0.011160 
9.385074 0.963542 -21.023528 -170.677278 -74.897152 173.815438 -9.732002 27.790565 -8.442368 -30.295276 -11.040124 -22.716339 4.369701 4.763689 40.889010 31.537824 -6.735758 -0.539546 -7.297331 5.746239 -11.753925 -3.324465 -25.650055 1.509450 11.805569 -4.523968 -10.799197 -14.290849 -5.840669 48.512150 -29.405387 17.381765 10.498910 10.459708 -11.670400 -12.641674 -6.524326 2.925966 23.791930 13.221571 5.813097 10.664551 -8.137866 -3.239447 -27.080531 -4.307237 -7.295451 -13.669048 1.900557 -5.941934 7.445125 -2.849252 -0.987525 -10.492765 10.985495 30.168900 13.282189 -63.666224 -2.867672 53.753762 167.651161 -76.334388 -169.248372 11.724937 -17.998672 12.686699 -2.574990 11.767004 0.239395 -0.005484 -0.004503 0.015526 0.006769 -0.003980 -0.007724 -14.421060 -32.872654 -4.410201 83.551989 4.333386 58.862787 -179.412566 81.603548 -172.000777 -10.480507 34.749422 10.143454 1.213027 -7.848204 0.076586 -0.030763 -0.041122 0.045505 0.003338 0.003825 0.010394 
9.323278 0.959675 -21.031228 -168.143674 -78.785171 171.634754 -9.731956 27.233609 -7.961492 -30.288416 -10.263672 -21.482988 3.530159 4.382940 37.533398 32.167419 -7.997542 -1.020525 -7.288064 5.219567 -12.019912 -2.108644 -24.461610 1.607782 9.057545 -4.674692 -10.790056 -15.158582 -7.349257 52.390387 -30.945550 24.444902 13.553219 12.050015 -15.074119 -12.289122 -6.602520 2.151497 23.143064 11.679309 5.008337 9.538301 -6.076369 -2.920541 -26.546807 -2.969849 -11.528943 -14.022328 1.318289 -10.136267 6.728788 -3.483102 -2.595356 -10.886736 11.955975 32.593569 13.730204 -64.139923 -1.963644 50.998266 166.643461 -75.305318 -168.223409 10.964362 -17.990065 12.039220 -2.543450 11.136517 0.260302 -0.007362 -0.003294 0.016229 0.007502 -0.005853 -0.006578 -14.688331 -30.622897 -3.498355 82.813317 4.593801 59.431343 -177.643721 80.336071 -171.185727 -10.501792 34.798786 10.078621 1.311847 -7.759158 0.081897 -0.032247 -0.039214 0.048202 0.003185 0.004062 0.010185 
9.263880 0.948504 -21.036728 -166.739578 -81.643352 170.150485 -9.028667 27.140950 -7.054014 -30.080953 -10.012328 -19.744201 4.716413 4.933151 39.684187 34.237447 -8.647151 -3.379792 -6.547728 4.987701 -12.725490 -0.526095 -23.159806 1.563944 7.610449 -2.098004 -11.591533 -19.666955 -9.021067 58.150262 -38.689318 32.452999 10.738623 12.614292 -19.146881 -11.227065 -5.439133 0.102187 22.816566 7.420869 2.263364 8.807388 -2.844421 -1.390231 -26.632018 -0.589919 -19.059372 -14.635070 0.551755 -17.639658 6.395015 -4.550639 -5.770000 -11.037949 12.697317 37.289274 13.166295 -65.544667 -1.017257 48.816257 166.450479 -76.274500 -167.549082 9.902956 -18.342502 11.271212 -2.467200 10.778815 0.264017 -0.006985 -0.000567 0.017148 0.009256 -0.008004 -0.006505 -13.893520 -26.124521 -2.512047 82.160708 5.168988 60.058307 -176.231662 80.461808 -170.379701 -10.821328 33.682327 10.204950 1.493683 -7.972013 0.118865 -0.033880 -0.035254 0.053413 0.001668 0.002939 0.010509 
